<svg width="33" height="52" viewBox="0 0 33 52" fill="none" xmlns="http://www.w3.org/2000/svg">
<path d="M22.0149 39.2617C21.1847 35.2087 19.0488 31.5283 15.9252 28.7685C15.9359 28.6301 15.8977 28.4923 15.8172 28.3784C15.602 28.0368 15.423 27.6742 15.2833 27.2964C15.4647 27.1855 15.6108 27.0264 15.7046 26.8373C15.7985 26.6482 15.8363 26.4369 15.8138 26.2275C15.8145 25.592 15.734 24.9588 15.574 24.3431C15.6872 24.3121 15.788 24.2473 15.8624 24.1576C15.9368 24.068 15.9813 23.9578 15.9898 23.8422C15.9846 23.6782 15.9384 23.5179 15.8554 23.3757C16.4866 23.0003 16.7082 21.948 15.337 21.4106C14.7938 21.2253 14.3157 20.8905 13.9594 20.4458C14.1546 20.3016 14.2942 20.0963 14.3554 19.8636C14.4165 19.6309 14.3956 19.3846 14.2961 19.1651C14.0808 18.7747 13.9394 18.3489 13.8788 17.9086C14.4921 17.7772 15.0391 17.4378 15.4245 16.9495C15.8098 16.4613 16.0091 15.8552 15.9874 15.2369C16.0741 12.4307 13.9059 10.4196 13.9059 9.39066C13.9059 8.59722 14.911 8.47136 15.3713 8.45524H17.2016C17.47 8.49143 17.7432 8.46975 18.0023 8.39169C18.2614 8.31363 18.5002 8.18106 18.7022 8.00313C18.9043 7.8252 19.0647 7.60615 19.1725 7.36113C19.2802 7.1161 19.3327 6.85094 19.3263 6.58396C20.6273 6.63077 20.4105 5.78908 20.4105 5.78908C17.9836 5.48489 15.5385 5.34421 13.0922 5.36802C10.6459 5.34414 8.20087 5.48475 5.77401 5.78886C5.77401 5.78886 5.55718 6.63066 6.85817 6.58374C6.85181 6.85073 6.90433 7.11591 7.0121 7.36093C7.11988 7.60596 7.28033 7.825 7.48239 8.00292C7.68444 8.18085 7.92328 8.31341 8.18239 8.39144C8.4415 8.46948 8.71471 8.49114 8.98315 8.45491H10.8135C11.2738 8.47103 12.2789 8.59689 12.2789 9.39033C12.2789 10.4193 10.1107 12.4303 10.1973 15.2366C10.1757 15.8548 10.3749 16.4609 10.7603 16.9492C11.1456 17.4375 11.6927 17.7769 12.306 17.9082C12.2453 18.3486 12.1039 18.7744 11.8887 19.1648C11.7891 19.3843 11.7682 19.6306 11.8294 19.8633C11.8906 20.096 12.0302 20.3013 12.2253 20.4455C11.869 20.8901 11.391 21.2249 10.8477 21.4102C9.47651 21.948 9.69816 23 10.3294 23.3754C10.2463 23.5176 10.2002 23.6779 10.195 23.8419C10.2034 23.9575 10.2479 24.0676 10.3223 24.1573C10.3968 24.247 10.4975 24.3117 10.6107 24.3428C10.4508 24.9585 10.3702 25.5916 10.3709 26.2272C10.3484 26.4365 10.3863 26.6479 10.4801 26.8369C10.574 27.026 10.72 27.1852 10.9015 27.2961C10.7617 27.6739 10.5828 28.0364 10.3676 28.378C10.287 28.4919 10.2489 28.6297 10.2595 28.7682C7.13593 31.528 5.00005 35.2083 4.16984 39.2613C3.47544 44.1253 9.24344 46.8587 9.24344 46.8587C10.4651 47.3056 11.7639 47.5119 13.0661 47.4659H13.0925H13.119C14.4212 47.5119 15.72 47.3056 16.9416 46.8587C16.9416 46.8587 22.7087 44.1257 22.0149 39.2617Z" fill="#D1B982"/>
<path d="M16.0477 0.424525C15.0235 0.20633 13.9765 0.110805 12.9291 0.140024C11.8818 0.110805 10.8347 0.20633 9.8106 0.424525C9.75369 0.891707 9.88523 1.36223 10.1769 1.73473C10.4685 2.10723 10.897 2.3519 11.3699 2.41603C13.1415 2.73619 11.8223 4.01683 11.8223 4.01683C11.8464 4.40874 11.9581 4.79056 12.1494 5.13492C12.3408 5.47928 12.607 5.77766 12.9291 6.00867C13.2512 5.77766 13.5175 5.47928 13.7088 5.13492C13.9001 4.79056 14.0119 4.40874 14.0359 4.01683C14.0359 4.01683 12.7167 2.73619 14.4884 2.41603C14.9613 2.3519 15.3897 2.10723 15.6814 1.73473C15.973 1.36223 16.1046 0.891707 16.0477 0.424525Z" fill="#D1B982"/>
<path d="M9.93336 20.6625L11.2699 22.001L11.604 21.795L11.1028 20.0704C11.1028 20.0704 10.6026 18.9393 9.93336 19.5042C9.38456 19.9675 9.93336 20.6625 9.93336 20.6625Z" fill="#D1B982"/>
<path d="M16.1173 19.2189L14.7285 21.7471L15.1653 22.1555L17.1589 20.3229L16.1173 19.2189Z" fill="#D1B982"/>
<path d="M11.9921 51.06C9.27055 51.0784 6.61089 50.2601 4.38325 48.7189C3.01529 47.6521 1.91056 46.2934 1.15217 44.7451C0.393769 43.1968 0.00144877 41.499 0.00472127 39.7797C-0.0438388 38.0732 0.28268 36.3766 0.961874 34.8062C1.70556 33.1188 2.87687 31.6482 4.36331 30.5357C7.71678 28.0737 11.4805 26.2077 15.4849 25.0215C19.1246 23.8799 22.6099 22.3062 25.8641 20.3349C26.4966 20.0021 27.0303 19.5128 27.4128 18.915C27.7954 18.3173 28.0135 17.6317 28.0458 16.9257C28.0704 16.4305 27.9822 15.9363 27.7876 15.4791C27.593 15.022 27.2971 14.6136 26.9215 14.284C26.5418 13.9903 26.098 13.7878 25.6252 13.6923C25.1524 13.5969 24.6636 13.6113 24.1974 13.7342C22.6188 14.3199 21.2428 15.3378 20.2312 16.6682C17.0441 20.2742 16.3871 20.9407 16.3606 20.9676L15.7502 20.3791C15.7567 20.3726 16.4347 19.6828 19.5875 16.1156C20.703 14.6495 22.2306 13.5385 23.9808 12.9204C24.5666 12.7661 25.1804 12.7466 25.7751 12.8634C26.3697 12.9801 26.9291 13.23 27.4102 13.5938C27.9072 13.9985 28.3009 14.5126 28.5595 15.0947C28.8181 15.6768 28.9345 16.3106 28.8992 16.9451C28.8567 17.7882 28.5976 18.6068 28.1463 19.3242C27.695 20.0416 27.0663 20.6342 26.319 21.0466C23.0117 23.0524 19.4688 24.6536 15.7686 25.8149C11.8503 26.9741 8.16675 28.7972 4.88311 31.2024C3.51175 32.2283 2.431 33.5846 1.74464 35.1409C1.1148 36.5991 0.81239 38.1744 0.858161 39.7586C0.850106 41.3459 1.20688 42.9144 1.9017 44.3463C2.59651 45.7783 3.61134 47.0365 4.87 48.0266C7.1454 49.5969 9.89238 50.3634 12.6652 50.2014C16.0597 49.9283 19.3287 48.8122 22.1674 46.9572L22.6154 47.6735C19.6542 49.604 16.2449 50.763 12.706 51.0421C12.4666 51.0541 12.2286 51.0601 11.9921 51.06Z" fill="#D1B982"/>
<path d="M21.3367 46.5981L22.2999 48.7178L23.0951 48.2872L22.1319 46.1786L21.3367 46.5981Z" fill="#D1B982"/>
<path d="M21.9292 46.8216C22.6544 46.0732 23.4932 45.4405 24.4156 44.946C25.9175 44.1503 29.8548 42.9023 30.8772 42.3047C31.8997 41.7071 31.9025 41.3719 31.9025 41.3719L32.3528 42.3608L22.3188 47.6767L21.9292 46.8216Z" fill="#D1B982"/>
<path d="M22.4972 48.0685C23.5102 47.9015 24.4885 47.5719 25.3932 47.0928C26.8951 46.297 30.2175 43.6991 31.281 43.1915C32.3446 42.6839 32.5922 42.8864 32.5922 42.8864L32.1419 41.8976L22.1079 47.2135L22.4972 48.0685Z" fill="#D1B982"/>
</svg>
