<svg width="217" height="77" viewBox="0 0 217 77" fill="none" xmlns="http://www.w3.org/2000/svg">
<path d="M15.8684 11.3317V16.423H26.3624V69.7512C28.686 69.239 31.1491 68.7218 33.7392 68.2071V18.1904C33.8429 17.2548 34.5701 16.423 35.6087 16.423H41.4272C43.8172 16.423 44.9595 15.3845 45.3754 14.4489L47.8692 9.04541H18.153C16.907 9.04541 15.8684 10.0848 15.8684 11.3317Z" fill="#555555"/>
<path d="M149.163 9.04541H145.109L137.114 61.8498C139.664 62.0374 142.234 62.2483 144.826 62.4932L148.851 31.6953L152.988 63.3557C155.623 63.6645 158.28 64.0066 160.95 64.3785L153.111 12.9936C152.8 11.0204 152.279 9.04541 149.163 9.04541Z" fill="#555555"/>
<path d="M180.024 8.21527V50.089L172.336 12.2681C171.92 10.1894 171.191 8.21446 167.035 8.21446H163.607V64.5619C166.088 64.9562 168.581 65.3755 171.088 65.8296V40.3206L177.015 66.9553C180.491 67.6443 183.988 68.3923 187.505 69.2033V8.21362H180.024V8.21527Z" fill="#555555"/>
<path d="M98.6554 9.04541H97.7846V9.0504C98.1158 9.05455 98.4064 9.09937 98.6728 9.16745C98.6695 9.12677 98.6579 9.08858 98.6554 9.04541Z" fill="black"/>
<path d="M98.8721 7.00073C98.6721 7.75036 98.6131 8.42609 98.6555 9.04538H100.074C99.5952 8.407 99.1702 7.73874 98.8721 7.00073Z" fill="#555555"/>
<path d="M100.409 3.2749C99.7338 5.81102 100.633 7.50369 101.809 9.04529H104.55C103.275 7.0662 101.292 5.46568 100.409 3.2749Z" fill="#555555"/>
<path d="M102.221 0C101.069 4.3168 104.47 6.19543 106.055 9.04535H107.492C107.272 5.20589 103.533 3.25337 102.221 0Z" fill="#555555"/>
<path fill-rule="evenodd" clip-rule="evenodd" d="M149.734 48.6785C149.238 52.1195 152.247 55.6816 147.826 58.9881C150.499 55.6219 146.383 52.024 149.734 48.6785Z" fill="#555555"/>
<path d="M66.0379 57.5172H60.011C59.0214 57.5172 58.3225 56.8539 58.2577 55.8935V49.1526C58.2577 48.2187 59.0887 47.3869 60.0234 47.3869H63.1398C65.5298 47.3869 66.5684 46.3484 67.088 45.4128C67.3994 44.7893 68.6462 41.775 69.4781 39.9055H58.2577V18.2933C58.2577 17.2548 58.9841 16.5276 60.0234 16.5276H66.0504C68.4404 16.5276 69.5835 15.3845 69.9986 14.4489L72.4915 9.04541H53.0618C51.8149 9.04541 50.8801 9.98182 50.7764 11.1241V65.2327C53.1946 64.8674 55.6875 64.5154 58.2453 64.1784V64.9986L72.4791 63.3374L69.9861 59.5951C69.5702 58.6603 68.4271 57.5172 66.0379 57.5172Z" fill="#555555"/>
<path d="M125.892 47.0756C128.905 46.3483 128.593 40.6319 128.593 40.6319V18.1904C128.593 13.0991 124.436 9.04541 119.449 9.04541H112.473H112.027H111.74H107.492C107.553 10.1022 107.361 11.2951 106.76 12.7064C106.974 11.2453 106.632 10.0831 106.055 9.04541H104.55C105.689 10.8194 106.264 12.8948 104.949 15.9813C105.404 12.8641 103.363 11.0851 101.808 9.04541H100.073C102.29 12.0091 105.701 14.3302 103.413 19.7096C103.823 16.902 102.209 15.1803 100.748 13.3763C99.7462 12.1394 98.8264 10.8601 98.6712 9.16745C98.6687 9.12677 98.6571 9.08858 98.6537 9.04625H97.7348H95.0085H93.2694V41.0495H85.9956C84.2298 41.0495 83.3989 40.529 83.3989 38.4519V9.04625H78.9301C76.6447 9.04625 75.9175 10.7099 75.9175 11.9568V62.2657C78.3656 62.0557 80.8628 61.8672 83.3989 61.6987V48.4262H91.5028C92.4384 48.4262 93.1656 49.1534 93.2702 50.089V61.1624C95.2684 61.0794 97.3072 61.0246 99.3519 60.9732C98.8331 60.9864 95.8088 60.9873 95.2941 61.0031V60.3754H95.8869C95.4635 59.5121 95.2319 58.5134 95.3921 57.3828C96.1193 53.7741 97.9938 50.4958 100.736 48.0377C100.729 47.9148 100.758 47.7862 100.829 47.6907C101.017 47.386 101.177 47.0614 101.299 46.7277C100.974 46.5235 100.791 46.1549 100.831 45.7764C100.831 45.2085 100.904 44.6465 101.043 44.0953C100.843 44.0405 100.692 43.8604 100.678 43.6529C100.681 43.5051 100.727 43.3623 100.798 43.2361C100.259 42.9115 100.072 42.0249 101.155 41.5343L100.446 40.8187C100.446 40.8187 99.9695 40.2036 100.446 39.7877C101.038 39.2838 101.479 40.2932 101.479 40.2932L101.75 41.2446C102.021 41.0802 102.264 40.8743 102.461 40.6244C102.111 40.3621 101.988 39.8881 102.164 39.4863C102.354 39.1376 102.479 38.7583 102.534 38.3656C101.419 38.1248 100.643 37.122 100.678 35.9905C100.605 33.4901 102.511 31.6961 102.511 30.7838C102.511 30.074 101.628 29.9611 101.224 29.9512H99.6134C99.5271 29.9578 99.4416 29.9636 99.3519 29.9611C98.4487 29.9404 97.7298 29.1899 97.748 28.2834C96.6107 28.3257 96.7984 27.572 96.7984 27.572C98.7061 27.3304 100.621 27.2092 102.545 27.2025C102.296 26.8489 102.135 26.4388 102.108 25.9996C102.108 25.9996 103.264 24.8582 101.715 24.5734C100.85 24.4497 100.24 23.6594 100.345 22.7969C101.241 22.6035 102.159 22.5196 103.083 22.542C103.999 22.5196 104.918 22.6026 105.818 22.7969C105.921 23.6594 105.314 24.4489 104.45 24.5734C102.897 24.8582 104.05 25.9996 104.05 25.9996C104.022 26.438 103.865 26.8472 103.62 27.2009C105.63 27.1959 107.648 27.3187 109.648 27.5769C109.648 27.5769 109.838 28.3257 108.697 28.2842C108.698 28.3706 108.697 28.4602 108.682 28.5424C108.561 29.4489 107.73 30.074 106.833 29.9528H105.224C104.821 29.9628 103.938 30.0749 103.938 30.7855C103.938 31.6986 105.844 33.4926 105.762 35.9922C105.803 37.1237 105.026 38.1265 103.916 38.3673C103.967 38.7599 104.092 39.1393 104.281 39.4896C104.46 39.8898 104.337 40.3638 103.984 40.6261C104.233 40.9333 104.543 41.1823 104.892 41.3558L105.882 39.5336L106.201 39.8765C106.486 39.6133 106.79 39.3917 107.173 39.297C107.362 39.2539 107.589 39.2613 107.78 39.3892C107.974 39.5129 108.095 39.7237 108.17 39.9246C108.321 40.3281 108.34 40.7647 108.359 41.1441L108.431 42.3196C108.538 43.8861 108.67 45.4501 108.862 47.0042C108.96 47.7804 109.071 48.5541 109.229 49.3128C109.31 49.6906 109.399 50.0683 109.529 50.4186C109.639 50.754 109.88 51.1516 110.124 50.9798C110.353 50.7888 110.449 50.3663 110.524 50.0035C110.596 49.6258 110.638 49.2373 110.668 48.8471C110.686 48.6006 110.693 48.3524 110.703 48.1041L110.434 48.0776L110.441 47.8269L110.544 47.8368C110.484 47.5952 110.45 47.3487 110.455 47.1005C110.468 46.6256 110.708 45.4966 110.703 45.1645C110.698 44.8341 110.615 44.786 110.615 44.786L110.778 44.8026L111.083 44.8325C111.083 44.8325 110.999 44.8632 110.977 45.1928C110.954 45.5223 111.133 46.6912 111.119 47.1661C111.112 47.4093 111.065 47.6484 110.991 47.8808L111.094 47.8908L111.089 48.1431L110.835 48.1182C110.829 48.3665 110.825 48.6147 110.81 48.8621C110.784 49.2572 110.747 49.6507 110.677 50.0434C110.592 50.4236 110.539 50.8511 110.214 51.1483C110.026 51.2986 109.774 51.1965 109.646 51.0354C109.514 50.8777 109.432 50.69 109.359 50.5066C109.216 50.1372 109.121 49.7545 109.032 49.3709C108.862 48.6022 108.739 47.8252 108.631 47.0449C108.416 45.4867 108.264 43.9185 108.134 42.3495L108.045 41.1724C108.022 40.7722 107.995 40.4045 107.871 40.0824C107.751 39.7545 107.526 39.6117 107.238 39.688C106.971 39.7545 106.695 39.9479 106.465 40.1629L106.794 40.5182L105.556 41.6729C106.343 42.1777 106.138 42.9439 105.65 43.2394C105.724 43.3656 105.761 43.5084 105.762 43.6562C105.75 43.8637 105.608 44.0438 105.405 44.0986C105.542 44.6499 105.612 45.2127 105.61 45.7797C105.653 46.1607 105.471 46.5268 105.146 46.731C105.273 47.0648 105.426 47.3894 105.612 47.694C105.687 47.7895 105.721 47.9182 105.713 48.0435C108.453 50.4991 110.327 53.7774 111.055 57.3861C111.214 58.5167 110.982 59.5154 110.559 60.3788H111.742V60.8503C111.717 60.8503 111.692 60.852 111.667 60.852C111.971 60.8495 112.185 60.847 112.335 60.8445C112.384 60.8486 112.625 60.8544 113.321 60.8619V50.5074H117.27C119.244 50.5074 121.114 51.6497 121.114 55.1828V61.0196C123.585 61.096 126.078 61.1956 128.596 61.3218V53.936C128.593 53.9326 128.8 48.53 125.892 47.0756ZM121.112 39.2829C121.112 42.6069 119.242 43.4387 117.267 43.4387H113.318V16.0079H117.267C119.242 16.0079 121.112 17.0456 121.112 19.7486V39.2829Z" fill="#555555"/>
<path d="M0 76.8762C4.28442 75.2226 8.66348 73.8163 13.0716 72.5229C17.4797 71.2229 21.9194 70.0258 26.3831 68.9159C35.3222 66.7517 44.3543 64.9519 53.4494 63.5332C62.5396 62.0746 71.6979 61.0552 80.876 60.2981C90.0584 59.5758 99.2697 59.2247 108.482 59.1724C117.695 59.1798 126.909 59.5011 136.095 60.1943C145.278 60.9323 154.44 61.9459 163.529 63.4302C172.622 64.8722 181.647 66.7243 190.572 68.9449C195.028 70.0822 199.46 71.3067 203.863 72.6175C206.065 73.275 208.261 73.9491 210.446 74.6522C212.627 75.3728 214.8 76.115 216.965 76.8771C214.75 76.2744 212.531 75.6933 210.306 75.1346C208.087 74.5593 205.864 74.0014 203.636 73.4676C199.179 72.4 194.703 71.4213 190.213 70.5322C181.243 68.6992 172.214 67.2058 163.154 65.9946C154.088 64.8257 144.995 63.8793 135.875 63.3306C126.76 62.7379 117.624 62.444 108.49 62.4897C99.3552 62.478 90.2211 62.8159 81.1043 63.4236C71.9843 63.9964 62.8891 64.9403 53.8172 66.0884C44.7519 67.278 35.7124 68.7208 26.7326 70.4973C17.7379 72.2191 8.81125 74.3086 0 76.8762Z" fill="#555555"/>
</svg>
