<svg width="217" height="78" viewBox="0 0 217 78" fill="none" xmlns="http://www.w3.org/2000/svg">
<path d="M15.8684 11.6955V16.7868H26.3624V70.115C28.686 69.6028 31.149 69.0856 33.7391 68.5709V18.5542C33.8429 17.6186 34.5701 16.7868 35.6086 16.7868H41.4272C43.8172 16.7868 44.9595 15.7483 45.3754 14.8127L47.8692 9.40921H18.153C16.9069 9.40921 15.8684 10.4486 15.8684 11.6955Z" fill="white"/>
<path d="M149.163 9.40921H145.109L137.114 62.2136C139.664 62.4012 142.234 62.6121 144.826 62.857L148.851 32.0591L152.988 63.7195C155.623 64.0283 158.28 64.3704 160.95 64.7423L153.111 13.3574C152.8 11.3842 152.279 9.40921 149.163 9.40921Z" fill="white"/>
<path d="M180.024 8.57907V50.4528L172.336 12.6319C171.92 10.5532 171.191 8.57826 167.035 8.57826H163.607V64.9257C166.088 65.32 168.581 65.7393 171.088 66.1934V40.6844L177.015 67.3191C180.491 68.0081 183.988 68.7561 187.505 69.5671V8.57742H180.024V8.57907Z" fill="white"/>
<path d="M98.6555 9.40921H97.7847V9.4142C98.1159 9.41835 98.4065 9.46317 98.6729 9.53125C98.6696 9.49057 98.658 9.45238 98.6555 9.40921Z" fill="black"/>
<path d="M98.8722 7.36456C98.6721 8.11419 98.6132 8.78992 98.6555 9.40922H100.074C99.5952 8.77083 99.1702 8.10257 98.8722 7.36456Z" fill="white"/>
<path d="M100.409 3.63879C99.7337 6.17491 100.633 7.86759 101.809 9.40918H104.55C103.275 7.43009 101.292 5.82957 100.409 3.63879Z" fill="white"/>
<path d="M102.221 0.363861C101.07 4.68066 104.47 6.55929 106.055 9.40921H107.492C107.272 5.56975 103.533 3.61723 102.221 0.363861Z" fill="white"/>
<path fill-rule="evenodd" clip-rule="evenodd" d="M149.734 49.0424C149.238 52.4834 152.247 56.0456 147.826 59.3521C150.499 55.9858 146.383 52.3879 149.734 49.0424Z" fill="white"/>
<path d="M66.0379 57.881H60.011C59.0214 57.881 58.3225 57.2177 58.2577 56.2573V49.5164C58.2577 48.5825 59.0887 47.7507 60.0234 47.7507H63.1398C65.5298 47.7507 66.5684 46.7122 67.088 45.7766C67.3994 45.1531 68.6462 42.1388 69.4781 40.2693H58.2577V18.6571C58.2577 17.6186 58.9841 16.8914 60.0234 16.8914H66.0504C68.4404 16.8914 69.5835 15.7483 69.9986 14.8127L72.4915 9.40921H53.0618C51.8149 9.40921 50.8801 10.3456 50.7764 11.4879V65.5965C53.1946 65.2312 55.6875 64.8792 58.2453 64.5422V65.3624L72.4791 63.7012L69.9861 59.9589C69.5702 59.0241 68.4271 57.881 66.0379 57.881Z" fill="white"/>
<path d="M125.892 47.4394C128.904 46.7122 128.593 40.9957 128.593 40.9957V18.5542C128.593 13.4629 124.436 9.40921 119.449 9.40921H112.473H112.027H111.74H107.492C107.553 10.466 107.361 11.6589 106.76 13.0702C106.974 11.6091 106.631 10.4469 106.055 9.40921H104.549C105.689 11.1832 106.264 13.2586 104.949 16.3451C105.404 13.2279 103.363 11.4489 101.807 9.40921H100.073C102.29 12.3729 105.701 14.694 103.413 20.0734C103.823 17.2658 102.209 15.5441 100.748 13.7401C99.7462 12.5032 98.8264 11.2239 98.6711 9.53125C98.6687 9.49057 98.657 9.45238 98.6537 9.41005H97.7347H95.0085H93.2693V41.4133H85.9956C84.2298 41.4133 83.3988 40.8928 83.3988 38.8157V9.41005H78.9301C76.6447 9.41005 75.9175 11.0737 75.9175 12.3206V62.6295C78.3656 62.4195 80.8627 62.231 83.3988 62.0625V48.79H91.5028C92.4384 48.79 93.1656 49.5172 93.2702 50.4528V61.5262C95.2684 61.4432 97.3072 61.3884 99.3519 61.337C98.833 61.3502 95.8088 61.3511 95.2941 61.3669V60.7392H95.8868C95.4635 59.8759 95.2318 58.8772 95.3921 57.7466C96.1193 54.1379 97.9937 50.8596 100.736 48.4015C100.729 48.2786 100.758 48.15 100.829 48.0545C101.017 47.7498 101.177 47.4252 101.299 47.0915C100.974 46.8873 100.791 46.5187 100.831 46.1402C100.831 45.5723 100.904 45.0103 101.043 44.4591C100.843 44.4043 100.692 44.2242 100.678 44.0167C100.681 43.8689 100.727 43.7261 100.798 43.5999C100.259 43.2753 100.072 42.3887 101.155 41.8981L100.446 41.1825C100.446 41.1825 99.9695 40.5674 100.446 40.1515C101.038 39.6476 101.479 40.657 101.479 40.657L101.75 41.6084C102.021 41.444 102.264 41.2381 102.461 40.9882C102.11 40.7259 101.988 40.2519 102.164 39.8501C102.354 39.5014 102.479 39.1221 102.534 38.7294C101.419 38.4886 100.643 37.4858 100.678 36.3543C100.605 33.8539 102.511 32.0599 102.511 31.1476C102.511 30.4378 101.628 30.3249 101.224 30.315H99.6134C99.527 30.3216 99.4415 30.3274 99.3519 30.3249C98.4487 30.3042 97.7298 29.5537 97.748 28.6472C96.6107 28.6895 96.7983 27.9358 96.7983 27.9358C98.706 27.6942 100.621 27.573 102.545 27.5663C102.296 27.2127 102.135 26.8026 102.108 26.3634C102.108 26.3634 103.264 25.222 101.714 24.9372C100.849 24.8135 100.24 24.0232 100.345 23.1607C101.241 22.9673 102.159 22.8834 103.083 22.9058C103.999 22.8834 104.918 22.9664 105.818 23.1607C105.921 24.0232 105.314 24.8127 104.45 24.9372C102.897 25.222 104.05 26.3634 104.05 26.3634C104.022 26.8018 103.865 27.211 103.62 27.5647C105.629 27.5597 107.648 27.6825 109.648 27.9407C109.648 27.9407 109.838 28.6895 108.697 28.648C108.698 28.7344 108.697 28.824 108.682 28.9062C108.561 29.8127 107.73 30.4378 106.833 30.3166H105.224C104.821 30.3266 103.938 30.4387 103.938 31.1493C103.938 32.0624 105.844 33.8564 105.761 36.356C105.803 37.4875 105.026 38.4903 103.916 38.7311C103.967 39.1237 104.092 39.5031 104.281 39.8534C104.46 40.2536 104.337 40.7276 103.984 40.9899C104.233 41.2971 104.543 41.5461 104.892 41.7196L105.882 39.8974L106.201 40.2403C106.486 39.9771 106.79 39.7555 107.173 39.6608C107.362 39.6177 107.589 39.6251 107.78 39.753C107.974 39.8767 108.095 40.0875 108.17 40.2884C108.321 40.6919 108.34 41.1285 108.359 41.5079L108.431 42.6834C108.538 44.2499 108.67 45.8139 108.862 47.368C108.96 48.1442 109.071 48.9179 109.229 49.6766C109.31 50.0544 109.399 50.4321 109.529 50.7824C109.639 51.1178 109.88 51.5154 110.124 51.3436C110.353 51.1526 110.449 50.7301 110.524 50.3673C110.596 49.9896 110.638 49.6011 110.668 49.2109C110.686 48.9644 110.693 48.7162 110.703 48.4679L110.434 48.4414L110.441 48.1907L110.544 48.2006C110.484 47.959 110.45 47.7125 110.455 47.4643C110.468 46.9894 110.708 45.8604 110.703 45.5284C110.698 45.1979 110.615 45.1498 110.615 45.1498L110.778 45.1664L111.083 45.1963C111.083 45.1963 110.999 45.227 110.977 45.5566C110.954 45.8861 111.133 47.055 111.118 47.5299C111.112 47.7731 111.065 48.0122 110.991 48.2446L111.094 48.2546L111.089 48.507L110.835 48.482C110.829 48.7303 110.825 48.9785 110.81 49.2259C110.784 49.621 110.747 50.0145 110.677 50.4072C110.592 50.7874 110.539 51.2149 110.214 51.5121C110.026 51.6624 109.774 51.5603 109.646 51.3992C109.514 51.2415 109.432 51.0538 109.359 50.8704C109.216 50.501 109.121 50.1183 109.032 49.7347C108.862 48.966 108.739 48.189 108.63 47.4087C108.415 45.8505 108.264 44.2823 108.134 42.7133L108.045 41.5362C108.022 41.136 107.995 40.7683 107.871 40.4462C107.751 40.1183 107.526 39.9755 107.238 40.0518C106.971 40.1183 106.695 40.3117 106.465 40.5267L106.794 40.882L105.556 42.0367C106.343 42.5415 106.138 43.3077 105.65 43.6032C105.724 43.7294 105.761 43.8722 105.761 44.02C105.75 44.2275 105.608 44.4076 105.405 44.4624C105.542 45.0137 105.612 45.5765 105.61 46.1435C105.653 46.5245 105.471 46.8906 105.146 47.0948C105.273 47.4286 105.426 47.7532 105.612 48.0578C105.687 48.1533 105.721 48.282 105.713 48.4073C108.453 50.8629 110.327 54.1412 111.055 57.7499C111.214 58.8805 110.982 59.8792 110.559 60.7426H111.742V61.2141C111.717 61.2141 111.692 61.2158 111.667 61.2158C111.971 61.2133 112.185 61.2108 112.335 61.2083C112.384 61.2124 112.625 61.2182 113.321 61.2257V50.8712H117.27C119.244 50.8712 121.114 52.0135 121.114 55.5466V61.3834C123.585 61.4598 126.078 61.5594 128.596 61.6856V54.2998C128.593 54.2964 128.8 48.8938 125.892 47.4394ZM121.112 39.6467C121.112 42.9707 119.242 43.8025 117.267 43.8025H113.318V16.3717H117.267C119.242 16.3717 121.112 17.4094 121.112 20.1124V39.6467Z" fill="white"/>
<path d="M0 77.2402C4.28442 75.5865 8.66348 74.1803 13.0716 72.8869C17.4797 71.5869 21.9194 70.3898 26.3831 69.2799C35.3222 67.1156 44.3543 65.3159 53.4494 63.8972C62.5396 62.4386 71.6979 61.4191 80.876 60.662C90.0583 59.9398 99.2697 59.5886 108.482 59.5363C117.695 59.5438 126.909 59.8651 136.095 60.5583C145.278 61.2963 154.44 62.3099 163.529 63.7942C172.622 65.2362 181.647 67.0883 190.572 69.3089C195.028 70.4462 199.46 71.6707 203.863 72.9815C206.065 73.639 208.261 74.3131 210.446 75.0162C212.627 75.7368 214.8 76.479 216.965 77.241C214.75 76.6384 212.531 76.0572 210.306 75.4986C208.087 74.9233 205.864 74.3654 203.636 73.8316C199.179 72.764 194.703 71.7853 190.213 70.8962C181.243 69.0632 172.214 67.5698 163.154 66.3586C154.088 65.1897 144.995 64.2433 135.875 63.6946C126.76 63.1019 117.624 62.808 108.49 62.8536C99.3552 62.842 90.2211 63.1799 81.1043 63.7876C71.9843 64.3604 62.8891 65.3043 53.8172 66.4524C44.7519 67.642 35.7124 69.0848 26.7326 70.8613C17.7379 72.583 8.81125 74.6725 0 77.2402Z" fill="white"/>
</svg>
